<?xml version="1.0" encoding="UTF-8" standalone="no"?>
<!DOCTYPE svg PUBLIC "-//W3C//DTD SVG 1.1//EN"
 "http://www.w3.org/Graphics/SVG/1.1/DTD/svg11.dtd">
<!-- Generated by graphviz version 2.40.1 (20161225.0304)
 -->
<!-- Title: dependencies Pages: 1 -->
<svg width="628pt" height="284pt"
 viewBox="0.00 0.00 628.00 284.00" xmlns="http://www.w3.org/2000/svg" xmlns:xlink="http://www.w3.org/1999/xlink">
<g id="graph0" class="graph" transform="scale(1 1) rotate(0) translate(4 280)">
<title>dependencies</title>
<polygon fill="#ffffff" stroke="transparent" points="-4,4 -4,-280 624,-280 624,4 -4,4"/>
<text text-anchor="start" x="289.0091" y="-42.4" font-family="sans-serif" font-weight="bold" font-size="14.00" fill="#000000">Legend</text>
<polygon fill="#ffffb3" stroke="transparent" points="76,-10 76,-30 96,-30 96,-10 76,-10"/>
<text text-anchor="start" x="99.629" y="-15.4" font-family="sans-serif" font-size="14.00" fill="#000000"> &#160;Declarations</text>
<polygon fill="#8dd3c7" stroke="transparent" points="189,-10 189,-30 209,-30 209,-10 189,-10"/>
<text text-anchor="start" x="212.7251" y="-15.4" font-family="sans-serif" font-size="14.00" fill="#000000"> &#160;Module</text>
<polygon fill="#80b1d3" stroke="transparent" points="275,-10 275,-30 295,-30 295,-10 275,-10"/>
<text text-anchor="start" x="298.7812" y="-15.4" font-family="sans-serif" font-size="14.00" fill="#000000"> &#160;Bootstrap</text>
<polygon fill="#fdb462" stroke="transparent" points="372,-10 372,-30 392,-30 392,-10 372,-10"/>
<text text-anchor="start" x="395.6732" y="-15.4" font-family="sans-serif" font-size="14.00" fill="#000000"> &#160;Providers</text>
<polygon fill="#fb8072" stroke="transparent" points="468,-10 468,-30 488,-30 488,-10 468,-10"/>
<text text-anchor="start" x="491.7258" y="-15.4" font-family="sans-serif" font-size="14.00" fill="#000000"> &#160;Exports</text>
<g id="clust1" class="cluster">
<title>cluster_AppModule</title>
<polygon fill="none" stroke="#000000" stroke-dasharray="1,5" points="8,-70 8,-268 612,-268 612,-70 8,-70"/>
</g>
<g id="clust2" class="cluster">
<title>cluster_AppModule_declarations</title>
<polygon fill="none" stroke="#000000" points="314,-78 314,-130 604,-130 604,-78 314,-78"/>
</g>
<g id="clust5" class="cluster">
<title>cluster_AppModule_imports</title>
<polygon fill="none" stroke="#000000" points="162,-78 162,-130 306,-130 306,-78 162,-78"/>
</g>
<g id="clust7" class="cluster">
<title>cluster_AppModule_bootstrap</title>
<polygon fill="none" stroke="#000000" points="253,-208 253,-260 377,-260 377,-208 253,-208"/>
</g>
<g id="clust8" class="cluster">
<title>cluster_AppModule_providers</title>
<polygon fill="none" stroke="#000000" points="16,-78 16,-130 154,-130 154,-78 16,-78"/>
</g>
<!-- AppComponent -->
<g id="node1" class="node">
<title>AppComponent</title>
<polygon fill="#ffffb3" stroke="#000000" points="595.9399,-122 490.0601,-122 490.0601,-86 595.9399,-86 595.9399,-122"/>
<text text-anchor="middle" x="543" y="-99.8" font-family="Times,serif" font-size="14.00" fill="#000000">AppComponent</text>
</g>
<!-- AppModule -->
<g id="node3" class="node">
<title>AppModule</title>
<polygon fill="#8dd3c7" stroke="#000000" points="356.6571,-187 353.6571,-191 332.6571,-191 329.6571,-187 273.3429,-187 273.3429,-151 356.6571,-151 356.6571,-187"/>
<text text-anchor="middle" x="315" y="-164.8" font-family="Times,serif" font-size="14.00" fill="#000000">AppModule</text>
</g>
<!-- AppComponent&#45;&gt;AppModule -->
<g id="edge1" class="edge">
<title>AppComponent&#45;&gt;AppModule</title>
<path fill="none" stroke="#000000" d="M543,-122.1061C543,-141.3391 543,-169 543,-169 543,-169 366.8187,-169 366.8187,-169"/>
<polygon fill="#000000" stroke="#000000" points="366.8187,-165.5001 356.8187,-169 366.8187,-172.5001 366.8187,-165.5001"/>
</g>
<!-- SearchHotelComponent -->
<g id="node2" class="node">
<title>SearchHotelComponent</title>
<polygon fill="#ffffb3" stroke="#000000" points="472.0226,-122 321.9774,-122 321.9774,-86 472.0226,-86 472.0226,-122"/>
<text text-anchor="middle" x="397" y="-99.8" font-family="Times,serif" font-size="14.00" fill="#000000">SearchHotelComponent</text>
</g>
<!-- SearchHotelComponent&#45;&gt;AppModule -->
<g id="edge2" class="edge">
<title>SearchHotelComponent&#45;&gt;AppModule</title>
<path fill="none" stroke="#000000" d="M339.2836,-122.1061C339.2836,-122.1061 339.2836,-140.991 339.2836,-140.991"/>
<polygon fill="#000000" stroke="#000000" points="335.7837,-140.9909 339.2836,-150.991 342.7837,-140.991 335.7837,-140.9909"/>
</g>
<!-- AppComponent  -->
<g id="node5" class="node">
<title>AppComponent </title>
<polygon fill="#80b1d3" stroke="#000000" points="369.439,-252 260.561,-252 260.561,-216 369.439,-216 369.439,-252"/>
<text text-anchor="middle" x="315" y="-229.8" font-family="Times,serif" font-size="14.00" fill="#000000">AppComponent </text>
</g>
<!-- AppModule&#45;&gt;AppComponent  -->
<g id="edge4" class="edge">
<title>AppModule&#45;&gt;AppComponent </title>
<path fill="none" stroke="#000000" stroke-dasharray="1,5" d="M315,-187.1061C315,-187.1061 315,-205.991 315,-205.991"/>
<polygon fill="#000000" stroke="#000000" points="311.5001,-205.9909 315,-215.991 318.5001,-205.991 311.5001,-205.9909"/>
</g>
<!-- AppRoutingModule -->
<g id="node4" class="node">
<title>AppRoutingModule</title>
<polygon fill="#8dd3c7" stroke="#000000" points="298.2744,-122 295.2744,-126 274.2744,-126 271.2744,-122 169.7256,-122 169.7256,-86 298.2744,-86 298.2744,-122"/>
<text text-anchor="middle" x="234" y="-99.8" font-family="Times,serif" font-size="14.00" fill="#000000">AppRoutingModule</text>
</g>
<!-- AppRoutingModule&#45;&gt;AppModule -->
<g id="edge3" class="edge">
<title>AppRoutingModule&#45;&gt;AppModule</title>
<path fill="none" stroke="#000000" d="M285.7795,-122.1061C285.7795,-122.1061 285.7795,-140.991 285.7795,-140.991"/>
<polygon fill="#000000" stroke="#000000" points="282.2795,-140.9909 285.7795,-150.991 289.2795,-140.991 282.2795,-140.9909"/>
</g>
<!-- HotelService -->
<g id="node6" class="node">
<title>HotelService</title>
<ellipse fill="#fdb462" stroke="#000000" cx="85" cy="-104" rx="61.3916" ry="18"/>
<text text-anchor="middle" x="85" y="-99.8" font-family="Times,serif" font-size="14.00" fill="#000000">HotelService</text>
</g>
<!-- HotelService&#45;&gt;AppModule -->
<g id="edge5" class="edge">
<title>HotelService&#45;&gt;AppModule</title>
<path fill="none" stroke="#000000" d="M85,-122.1061C85,-141.3391 85,-169 85,-169 85,-169 263.0819,-169 263.0819,-169"/>
<polygon fill="#000000" stroke="#000000" points="263.0819,-172.5001 273.0819,-169 263.0819,-165.5001 263.0819,-172.5001"/>
</g>
</g>
</svg>
