<?xml version="1.0" encoding="UTF-8" standalone="no"?>
<!DOCTYPE svg PUBLIC "-//W3C//DTD SVG 1.1//EN"
 "http://www.w3.org/Graphics/SVG/1.1/DTD/svg11.dtd">
<!-- Generated by graphviz version 2.40.1 (20161225.0304)
 -->
<!-- Title: dependencies Pages: 1 -->
<svg width="1246pt" height="211pt"
 viewBox="0.00 0.00 1246.00 211.00" xmlns="http://www.w3.org/2000/svg" xmlns:xlink="http://www.w3.org/1999/xlink">
<g id="graph0" class="graph" transform="scale(1 1) rotate(0) translate(4 207)">
<title>dependencies</title>
<polygon fill="#ffffff" stroke="transparent" points="-4,4 -4,-207 1242,-207 1242,4 -4,4"/>
<text text-anchor="start" x="598.0091" y="-42.4" font-family="sans-serif" font-weight="bold" font-size="14.00" fill="#000000">Legend</text>
<polygon fill="#ffffb3" stroke="transparent" points="385,-10 385,-30 405,-30 405,-10 385,-10"/>
<text text-anchor="start" x="408.629" y="-15.4" font-family="sans-serif" font-size="14.00" fill="#000000"> &#160;Declarations</text>
<polygon fill="#8dd3c7" stroke="transparent" points="498,-10 498,-30 518,-30 518,-10 498,-10"/>
<text text-anchor="start" x="521.7251" y="-15.4" font-family="sans-serif" font-size="14.00" fill="#000000"> &#160;Module</text>
<polygon fill="#80b1d3" stroke="transparent" points="584,-10 584,-30 604,-30 604,-10 584,-10"/>
<text text-anchor="start" x="607.7812" y="-15.4" font-family="sans-serif" font-size="14.00" fill="#000000"> &#160;Bootstrap</text>
<polygon fill="#fdb462" stroke="transparent" points="681,-10 681,-30 701,-30 701,-10 681,-10"/>
<text text-anchor="start" x="704.6732" y="-15.4" font-family="sans-serif" font-size="14.00" fill="#000000"> &#160;Providers</text>
<polygon fill="#fb8072" stroke="transparent" points="777,-10 777,-30 797,-30 797,-10 777,-10"/>
<text text-anchor="start" x="800.7258" y="-15.4" font-family="sans-serif" font-size="14.00" fill="#000000"> &#160;Exports</text>
<g id="clust1" class="cluster">
<title>cluster_HotelModule</title>
<polygon fill="none" stroke="#000000" stroke-dasharray="1,5" points="8,-70 8,-195 1230,-195 1230,-70 8,-70"/>
</g>
<g id="clust2" class="cluster">
<title>cluster_HotelModule_declarations</title>
<polygon fill="none" stroke="#000000" points="176,-78 176,-130 1222,-130 1222,-78 176,-78"/>
</g>
<g id="clust10" class="cluster">
<title>cluster_HotelModule_imports</title>
<polygon fill="none" stroke="#000000" points="16,-78 16,-130 168,-130 168,-78 16,-78"/>
</g>
<!-- HotelComponent -->
<g id="node1" class="node">
<title>HotelComponent</title>
<polygon fill="#ffffb3" stroke="#000000" points="1214.4356,-122 1101.5644,-122 1101.5644,-86 1214.4356,-86 1214.4356,-122"/>
<text text-anchor="middle" x="1158" y="-99.8" font-family="Times,serif" font-size="14.00" fill="#000000">HotelComponent</text>
</g>
<!-- HotelModule -->
<g id="node8" class="node">
<title>HotelModule</title>
<polygon fill="#8dd3c7" stroke="#000000" points="667.1529,-187 664.1529,-191 643.1529,-191 640.1529,-187 576.8471,-187 576.8471,-151 667.1529,-151 667.1529,-187"/>
<text text-anchor="middle" x="622" y="-164.8" font-family="Times,serif" font-size="14.00" fill="#000000">HotelModule</text>
</g>
<!-- HotelComponent&#45;&gt;HotelModule -->
<g id="edge1" class="edge">
<title>HotelComponent&#45;&gt;HotelModule</title>
<path fill="none" stroke="#000000" d="M1158,-122.2921C1158,-144.2057 1158,-178 1158,-178 1158,-178 677.2371,-178 677.2371,-178"/>
<polygon fill="#000000" stroke="#000000" points="677.2371,-174.5001 667.2371,-178 677.2371,-181.5001 677.2371,-174.5001"/>
</g>
<!-- HotelItemComponent -->
<g id="node2" class="node">
<title>HotelItemComponent</title>
<polygon fill="#ffffb3" stroke="#000000" points="1084.0912,-122 945.9088,-122 945.9088,-86 1084.0912,-86 1084.0912,-122"/>
<text text-anchor="middle" x="1015" y="-99.8" font-family="Times,serif" font-size="14.00" fill="#000000">HotelItemComponent</text>
</g>
<!-- HotelItemComponent&#45;&gt;HotelModule -->
<g id="edge2" class="edge">
<title>HotelItemComponent&#45;&gt;HotelModule</title>
<path fill="none" stroke="#000000" d="M1015,-122.1061C1015,-141.3391 1015,-169 1015,-169 1015,-169 677.466,-169 677.466,-169"/>
<polygon fill="#000000" stroke="#000000" points="677.4661,-165.5001 667.466,-169 677.466,-172.5001 677.4661,-165.5001"/>
</g>
<!-- HotelListComponent -->
<g id="node3" class="node">
<title>HotelListComponent</title>
<polygon fill="#ffffb3" stroke="#000000" points="928.2134,-122 793.7866,-122 793.7866,-86 928.2134,-86 928.2134,-122"/>
<text text-anchor="middle" x="861" y="-99.8" font-family="Times,serif" font-size="14.00" fill="#000000">HotelListComponent</text>
</g>
<!-- HotelListComponent&#45;&gt;HotelModule -->
<g id="edge3" class="edge">
<title>HotelListComponent&#45;&gt;HotelModule</title>
<path fill="none" stroke="#000000" d="M861,-122.027C861,-138.3976 861,-160 861,-160 861,-160 677.235,-160 677.235,-160"/>
<polygon fill="#000000" stroke="#000000" points="677.2351,-156.5001 667.235,-160 677.235,-163.5001 677.2351,-156.5001"/>
</g>
<!-- HotelFilterComponent -->
<g id="node4" class="node">
<title>HotelFilterComponent</title>
<polygon fill="#ffffb3" stroke="#000000" points="776.2646,-122 633.7354,-122 633.7354,-86 776.2646,-86 776.2646,-122"/>
<text text-anchor="middle" x="705" y="-99.8" font-family="Times,serif" font-size="14.00" fill="#000000">HotelFilterComponent</text>
</g>
<!-- HotelFilterComponent&#45;&gt;HotelModule -->
<g id="edge4" class="edge">
<title>HotelFilterComponent&#45;&gt;HotelModule</title>
<path fill="none" stroke="#000000" d="M650.472,-122.1061C650.472,-122.1061 650.472,-140.991 650.472,-140.991"/>
<polygon fill="#000000" stroke="#000000" points="646.972,-140.9909 650.472,-150.991 653.972,-140.991 646.972,-140.9909"/>
</g>
<!-- HotelHeaderComponent -->
<g id="node5" class="node">
<title>HotelHeaderComponent</title>
<polygon fill="#ffffb3" stroke="#000000" points="615.3459,-122 462.6541,-122 462.6541,-86 615.3459,-86 615.3459,-122"/>
<text text-anchor="middle" x="539" y="-99.8" font-family="Times,serif" font-size="14.00" fill="#000000">HotelHeaderComponent</text>
</g>
<!-- HotelHeaderComponent&#45;&gt;HotelModule -->
<g id="edge5" class="edge">
<title>HotelHeaderComponent&#45;&gt;HotelModule</title>
<path fill="none" stroke="#000000" d="M596.0484,-122.1061C596.0484,-122.1061 596.0484,-140.991 596.0484,-140.991"/>
<polygon fill="#000000" stroke="#000000" points="592.5485,-140.9909 596.0484,-150.991 599.5485,-140.991 592.5485,-140.9909"/>
</g>
<!-- NoContentComponent -->
<g id="node6" class="node">
<title>NoContentComponent</title>
<polygon fill="#ffffb3" stroke="#000000" points="444.2716,-122 301.7284,-122 301.7284,-86 444.2716,-86 444.2716,-122"/>
<text text-anchor="middle" x="373" y="-99.8" font-family="Times,serif" font-size="14.00" fill="#000000">NoContentComponent</text>
</g>
<!-- NoContentComponent&#45;&gt;HotelModule -->
<g id="edge6" class="edge">
<title>NoContentComponent&#45;&gt;HotelModule</title>
<path fill="none" stroke="#000000" d="M373,-122.027C373,-138.3976 373,-160 373,-160 373,-160 566.6191,-160 566.6191,-160"/>
<polygon fill="#000000" stroke="#000000" points="566.6191,-163.5001 576.6191,-160 566.6191,-156.5001 566.6191,-163.5001"/>
</g>
<!-- FilterhotelPipe -->
<g id="node7" class="node">
<title>FilterhotelPipe</title>
<polygon fill="#ffffb3" stroke="#000000" points="283.7134,-122 184.2866,-122 184.2866,-86 283.7134,-86 283.7134,-122"/>
<text text-anchor="middle" x="234" y="-99.8" font-family="Times,serif" font-size="14.00" fill="#000000">FilterhotelPipe</text>
</g>
<!-- FilterhotelPipe&#45;&gt;HotelModule -->
<g id="edge7" class="edge">
<title>FilterhotelPipe&#45;&gt;HotelModule</title>
<path fill="none" stroke="#000000" d="M234,-122.1061C234,-141.3391 234,-169 234,-169 234,-169 566.7321,-169 566.7321,-169"/>
<polygon fill="#000000" stroke="#000000" points="566.7321,-172.5001 576.7321,-169 566.7321,-165.5001 566.7321,-172.5001"/>
</g>
<!-- HotelRoutingModule -->
<g id="node9" class="node">
<title>HotelRoutingModule</title>
<polygon fill="#8dd3c7" stroke="#000000" points="159.7702,-122 156.7702,-126 135.7702,-126 132.7702,-122 24.2298,-122 24.2298,-86 159.7702,-86 159.7702,-122"/>
<text text-anchor="middle" x="92" y="-99.8" font-family="Times,serif" font-size="14.00" fill="#000000">HotelRoutingModule</text>
</g>
<!-- HotelRoutingModule&#45;&gt;HotelModule -->
<g id="edge8" class="edge">
<title>HotelRoutingModule&#45;&gt;HotelModule</title>
<path fill="none" stroke="#000000" d="M92,-122.2921C92,-144.2057 92,-178 92,-178 92,-178 566.8125,-178 566.8125,-178"/>
<polygon fill="#000000" stroke="#000000" points="566.8125,-181.5001 576.8125,-178 566.8125,-174.5001 566.8125,-181.5001"/>
</g>
</g>
</svg>
