<?xml version="1.0" encoding="UTF-8" standalone="no"?>
<!DOCTYPE svg PUBLIC "-//W3C//DTD SVG 1.1//EN"
 "http://www.w3.org/Graphics/SVG/1.1/DTD/svg11.dtd">
<!-- Generated by graphviz version 2.40.1 (20161225.0304)
 -->
<!-- Title: dependencies Pages: 1 -->
<svg width="1858pt" height="284pt"
 viewBox="0.00 0.00 1858.00 284.00" xmlns="http://www.w3.org/2000/svg" xmlns:xlink="http://www.w3.org/1999/xlink">
<g id="graph0" class="graph" transform="scale(1 1) rotate(0) translate(4 280)">
<title>dependencies</title>
<polygon fill="#ffffff" stroke="transparent" points="-4,4 -4,-280 1854,-280 1854,4 -4,4"/>
<text text-anchor="start" x="904.0091" y="-42.4" font-family="sans-serif" font-weight="bold" font-size="14.00" fill="#000000">Legend</text>
<polygon fill="#ffffb3" stroke="transparent" points="691,-10 691,-30 711,-30 711,-10 691,-10"/>
<text text-anchor="start" x="714.629" y="-15.4" font-family="sans-serif" font-size="14.00" fill="#000000"> &#160;Declarations</text>
<polygon fill="#8dd3c7" stroke="transparent" points="804,-10 804,-30 824,-30 824,-10 804,-10"/>
<text text-anchor="start" x="827.7251" y="-15.4" font-family="sans-serif" font-size="14.00" fill="#000000"> &#160;Module</text>
<polygon fill="#80b1d3" stroke="transparent" points="890,-10 890,-30 910,-30 910,-10 890,-10"/>
<text text-anchor="start" x="913.7812" y="-15.4" font-family="sans-serif" font-size="14.00" fill="#000000"> &#160;Bootstrap</text>
<polygon fill="#fdb462" stroke="transparent" points="987,-10 987,-30 1007,-30 1007,-10 987,-10"/>
<text text-anchor="start" x="1010.6732" y="-15.4" font-family="sans-serif" font-size="14.00" fill="#000000"> &#160;Providers</text>
<polygon fill="#fb8072" stroke="transparent" points="1083,-10 1083,-30 1103,-30 1103,-10 1083,-10"/>
<text text-anchor="start" x="1106.7258" y="-15.4" font-family="sans-serif" font-size="14.00" fill="#000000"> &#160;Exports</text>
<g id="clust1" class="cluster">
<title>cluster_AppModule</title>
<polygon fill="none" stroke="#000000" stroke-dasharray="1,5" points="8,-70 8,-268 612,-268 612,-70 8,-70"/>
</g>
<g id="clust2" class="cluster">
<title>cluster_AppModule_declarations</title>
<polygon fill="none" stroke="#000000" points="314,-78 314,-130 604,-130 604,-78 314,-78"/>
</g>
<g id="clust5" class="cluster">
<title>cluster_AppModule_imports</title>
<polygon fill="none" stroke="#000000" points="162,-78 162,-130 306,-130 306,-78 162,-78"/>
</g>
<g id="clust7" class="cluster">
<title>cluster_AppModule_bootstrap</title>
<polygon fill="none" stroke="#000000" points="253,-208 253,-260 377,-260 377,-208 253,-208"/>
</g>
<g id="clust8" class="cluster">
<title>cluster_AppModule_providers</title>
<polygon fill="none" stroke="#000000" points="16,-78 16,-130 154,-130 154,-78 16,-78"/>
</g>
<g id="clust15" class="cluster">
<title>cluster_HotelModule</title>
<polygon fill="none" stroke="#000000" stroke-dasharray="1,5" points="620,-70 620,-195 1842,-195 1842,-70 620,-70"/>
</g>
<g id="clust16" class="cluster">
<title>cluster_HotelModule_declarations</title>
<polygon fill="none" stroke="#000000" points="788,-78 788,-130 1834,-130 1834,-78 788,-78"/>
</g>
<g id="clust24" class="cluster">
<title>cluster_HotelModule_imports</title>
<polygon fill="none" stroke="#000000" points="628,-78 628,-130 780,-130 780,-78 628,-78"/>
</g>
<!-- AppComponent -->
<g id="node1" class="node">
<title>AppComponent</title>
<polygon fill="#ffffb3" stroke="#000000" points="595.9399,-122 490.0601,-122 490.0601,-86 595.9399,-86 595.9399,-122"/>
<text text-anchor="middle" x="543" y="-99.8" font-family="Times,serif" font-size="14.00" fill="#000000">AppComponent</text>
</g>
<!-- AppModule -->
<g id="node3" class="node">
<title>AppModule</title>
<polygon fill="#8dd3c7" stroke="#000000" points="356.6571,-187 353.6571,-191 332.6571,-191 329.6571,-187 273.3429,-187 273.3429,-151 356.6571,-151 356.6571,-187"/>
<text text-anchor="middle" x="315" y="-164.8" font-family="Times,serif" font-size="14.00" fill="#000000">AppModule</text>
</g>
<!-- AppComponent&#45;&gt;AppModule -->
<g id="edge1" class="edge">
<title>AppComponent&#45;&gt;AppModule</title>
<path fill="none" stroke="#000000" d="M543,-122.0109C543,-144.4852 543,-180 543,-180 543,-180 366.8187,-180 366.8187,-180"/>
<polygon fill="#000000" stroke="#000000" points="366.8187,-176.5001 356.8187,-180 366.8187,-183.5001 366.8187,-176.5001"/>
</g>
<!-- SearchHotelComponent -->
<g id="node2" class="node">
<title>SearchHotelComponent</title>
<polygon fill="#ffffb3" stroke="#000000" points="472.0226,-122 321.9774,-122 321.9774,-86 472.0226,-86 472.0226,-122"/>
<text text-anchor="middle" x="397" y="-99.8" font-family="Times,serif" font-size="14.00" fill="#000000">SearchHotelComponent</text>
</g>
<!-- SearchHotelComponent&#45;&gt;AppModule -->
<g id="edge2" class="edge">
<title>SearchHotelComponent&#45;&gt;AppModule</title>
<path fill="none" stroke="#000000" d="M339.2836,-122.1061C339.2836,-122.1061 339.2836,-140.991 339.2836,-140.991"/>
<polygon fill="#000000" stroke="#000000" points="335.7837,-140.9909 339.2836,-150.991 342.7837,-140.991 335.7837,-140.9909"/>
</g>
<!-- AppComponent  -->
<g id="node5" class="node">
<title>AppComponent </title>
<polygon fill="#80b1d3" stroke="#000000" points="369.439,-252 260.561,-252 260.561,-216 369.439,-216 369.439,-252"/>
<text text-anchor="middle" x="315" y="-229.8" font-family="Times,serif" font-size="14.00" fill="#000000">AppComponent </text>
</g>
<!-- AppModule&#45;&gt;AppComponent  -->
<g id="edge4" class="edge">
<title>AppModule&#45;&gt;AppComponent </title>
<path fill="none" stroke="#000000" stroke-dasharray="1,5" d="M315,-187.1061C315,-187.1061 315,-205.991 315,-205.991"/>
<polygon fill="#000000" stroke="#000000" points="311.5001,-205.9909 315,-215.991 318.5001,-205.991 311.5001,-205.9909"/>
</g>
<!-- AppRoutingModule -->
<g id="node4" class="node">
<title>AppRoutingModule</title>
<polygon fill="#8dd3c7" stroke="#000000" points="298.2744,-122 295.2744,-126 274.2744,-126 271.2744,-122 169.7256,-122 169.7256,-86 298.2744,-86 298.2744,-122"/>
<text text-anchor="middle" x="234" y="-99.8" font-family="Times,serif" font-size="14.00" fill="#000000">AppRoutingModule</text>
</g>
<!-- AppRoutingModule&#45;&gt;AppModule -->
<g id="edge3" class="edge">
<title>AppRoutingModule&#45;&gt;AppModule</title>
<path fill="none" stroke="#000000" d="M285.7795,-122.1061C285.7795,-122.1061 285.7795,-140.991 285.7795,-140.991"/>
<polygon fill="#000000" stroke="#000000" points="282.2795,-140.9909 285.7795,-150.991 289.2795,-140.991 282.2795,-140.9909"/>
</g>
<!-- HotelService -->
<g id="node6" class="node">
<title>HotelService</title>
<ellipse fill="#fdb462" stroke="#000000" cx="85" cy="-104" rx="61.3916" ry="18"/>
<text text-anchor="middle" x="85" y="-99.8" font-family="Times,serif" font-size="14.00" fill="#000000">HotelService</text>
</g>
<!-- HotelService&#45;&gt;AppModule -->
<g id="edge5" class="edge">
<title>HotelService&#45;&gt;AppModule</title>
<path fill="none" stroke="#000000" d="M85,-122.1061C85,-141.3391 85,-169 85,-169 85,-169 263.0819,-169 263.0819,-169"/>
<polygon fill="#000000" stroke="#000000" points="263.0819,-172.5001 273.0819,-169 263.0819,-165.5001 263.0819,-172.5001"/>
</g>
<!-- HotelComponent -->
<g id="node7" class="node">
<title>HotelComponent</title>
<polygon fill="#ffffb3" stroke="#000000" points="1826.4356,-122 1713.5644,-122 1713.5644,-86 1826.4356,-86 1826.4356,-122"/>
<text text-anchor="middle" x="1770" y="-99.8" font-family="Times,serif" font-size="14.00" fill="#000000">HotelComponent</text>
</g>
<!-- HotelModule -->
<g id="node14" class="node">
<title>HotelModule</title>
<polygon fill="#8dd3c7" stroke="#000000" points="1279.1529,-187 1276.1529,-191 1255.1529,-191 1252.1529,-187 1188.8471,-187 1188.8471,-151 1279.1529,-151 1279.1529,-187"/>
<text text-anchor="middle" x="1234" y="-164.8" font-family="Times,serif" font-size="14.00" fill="#000000">HotelModule</text>
</g>
<!-- HotelComponent&#45;&gt;HotelModule -->
<g id="edge6" class="edge">
<title>HotelComponent&#45;&gt;HotelModule</title>
<path fill="none" stroke="#000000" d="M1770,-122.2921C1770,-144.2057 1770,-178 1770,-178 1770,-178 1289.2371,-178 1289.2371,-178"/>
<polygon fill="#000000" stroke="#000000" points="1289.2371,-174.5001 1279.2371,-178 1289.2371,-181.5001 1289.2371,-174.5001"/>
</g>
<!-- HotelItemComponent -->
<g id="node8" class="node">
<title>HotelItemComponent</title>
<polygon fill="#ffffb3" stroke="#000000" points="1696.0912,-122 1557.9088,-122 1557.9088,-86 1696.0912,-86 1696.0912,-122"/>
<text text-anchor="middle" x="1627" y="-99.8" font-family="Times,serif" font-size="14.00" fill="#000000">HotelItemComponent</text>
</g>
<!-- HotelItemComponent&#45;&gt;HotelModule -->
<g id="edge7" class="edge">
<title>HotelItemComponent&#45;&gt;HotelModule</title>
<path fill="none" stroke="#000000" d="M1627,-122.1061C1627,-141.3391 1627,-169 1627,-169 1627,-169 1289.466,-169 1289.466,-169"/>
<polygon fill="#000000" stroke="#000000" points="1289.4661,-165.5001 1279.466,-169 1289.466,-172.5001 1289.4661,-165.5001"/>
</g>
<!-- HotelListComponent -->
<g id="node9" class="node">
<title>HotelListComponent</title>
<polygon fill="#ffffb3" stroke="#000000" points="1540.2134,-122 1405.7866,-122 1405.7866,-86 1540.2134,-86 1540.2134,-122"/>
<text text-anchor="middle" x="1473" y="-99.8" font-family="Times,serif" font-size="14.00" fill="#000000">HotelListComponent</text>
</g>
<!-- HotelListComponent&#45;&gt;HotelModule -->
<g id="edge8" class="edge">
<title>HotelListComponent&#45;&gt;HotelModule</title>
<path fill="none" stroke="#000000" d="M1473,-122.027C1473,-138.3976 1473,-160 1473,-160 1473,-160 1289.235,-160 1289.235,-160"/>
<polygon fill="#000000" stroke="#000000" points="1289.2351,-156.5001 1279.235,-160 1289.235,-163.5001 1289.2351,-156.5001"/>
</g>
<!-- HotelFilterComponent -->
<g id="node10" class="node">
<title>HotelFilterComponent</title>
<polygon fill="#ffffb3" stroke="#000000" points="1388.2646,-122 1245.7354,-122 1245.7354,-86 1388.2646,-86 1388.2646,-122"/>
<text text-anchor="middle" x="1317" y="-99.8" font-family="Times,serif" font-size="14.00" fill="#000000">HotelFilterComponent</text>
</g>
<!-- HotelFilterComponent&#45;&gt;HotelModule -->
<g id="edge9" class="edge">
<title>HotelFilterComponent&#45;&gt;HotelModule</title>
<path fill="none" stroke="#000000" d="M1262.472,-122.1061C1262.472,-122.1061 1262.472,-140.991 1262.472,-140.991"/>
<polygon fill="#000000" stroke="#000000" points="1258.972,-140.9909 1262.472,-150.991 1265.972,-140.991 1258.972,-140.9909"/>
</g>
<!-- HotelHeaderComponent -->
<g id="node11" class="node">
<title>HotelHeaderComponent</title>
<polygon fill="#ffffb3" stroke="#000000" points="1227.3459,-122 1074.6541,-122 1074.6541,-86 1227.3459,-86 1227.3459,-122"/>
<text text-anchor="middle" x="1151" y="-99.8" font-family="Times,serif" font-size="14.00" fill="#000000">HotelHeaderComponent</text>
</g>
<!-- HotelHeaderComponent&#45;&gt;HotelModule -->
<g id="edge10" class="edge">
<title>HotelHeaderComponent&#45;&gt;HotelModule</title>
<path fill="none" stroke="#000000" d="M1208.0484,-122.1061C1208.0484,-122.1061 1208.0484,-140.991 1208.0484,-140.991"/>
<polygon fill="#000000" stroke="#000000" points="1204.5485,-140.9909 1208.0484,-150.991 1211.5485,-140.991 1204.5485,-140.9909"/>
</g>
<!-- NoContentComponent -->
<g id="node12" class="node">
<title>NoContentComponent</title>
<polygon fill="#ffffb3" stroke="#000000" points="1056.2716,-122 913.7284,-122 913.7284,-86 1056.2716,-86 1056.2716,-122"/>
<text text-anchor="middle" x="985" y="-99.8" font-family="Times,serif" font-size="14.00" fill="#000000">NoContentComponent</text>
</g>
<!-- NoContentComponent&#45;&gt;HotelModule -->
<g id="edge11" class="edge">
<title>NoContentComponent&#45;&gt;HotelModule</title>
<path fill="none" stroke="#000000" d="M985,-122.0091C985,-138.0494 985,-159 985,-159 985,-159 1178.6191,-159 1178.6191,-159"/>
<polygon fill="#000000" stroke="#000000" points="1178.6191,-162.5001 1188.6191,-159 1178.6191,-155.5001 1178.6191,-162.5001"/>
</g>
<!-- FilterhotelPipe -->
<g id="node13" class="node">
<title>FilterhotelPipe</title>
<polygon fill="#ffffb3" stroke="#000000" points="895.7134,-122 796.2866,-122 796.2866,-86 895.7134,-86 895.7134,-122"/>
<text text-anchor="middle" x="846" y="-99.8" font-family="Times,serif" font-size="14.00" fill="#000000">FilterhotelPipe</text>
</g>
<!-- FilterhotelPipe&#45;&gt;HotelModule -->
<g id="edge12" class="edge">
<title>FilterhotelPipe&#45;&gt;HotelModule</title>
<path fill="none" stroke="#000000" d="M846,-122.2667C846,-140.5552 846,-166 846,-166 846,-166 1178.7321,-166 1178.7321,-166"/>
<polygon fill="#000000" stroke="#000000" points="1178.7321,-169.5001 1188.7321,-166 1178.7321,-162.5001 1178.7321,-169.5001"/>
</g>
<!-- HotelRoutingModule -->
<g id="node15" class="node">
<title>HotelRoutingModule</title>
<polygon fill="#8dd3c7" stroke="#000000" points="771.7702,-122 768.7702,-126 747.7702,-126 744.7702,-122 636.2298,-122 636.2298,-86 771.7702,-86 771.7702,-122"/>
<text text-anchor="middle" x="704" y="-99.8" font-family="Times,serif" font-size="14.00" fill="#000000">HotelRoutingModule</text>
</g>
<!-- HotelRoutingModule&#45;&gt;HotelModule -->
<g id="edge13" class="edge">
<title>HotelRoutingModule&#45;&gt;HotelModule</title>
<path fill="none" stroke="#000000" d="M704,-122.1289C704,-142.5724 704,-173 704,-173 704,-173 1178.8125,-173 1178.8125,-173"/>
<polygon fill="#000000" stroke="#000000" points="1178.8125,-176.5001 1188.8125,-173 1178.8125,-169.5001 1178.8125,-176.5001"/>
</g>
</g>
</svg>
